<svg id="Layer_1" data-name="Layer 1" xmlns="http://www.w3.org/2000/svg" viewBox="0 0 3809.6301 1422.02836"><path d="M550.153,149.0482c8.08179,7.89156,15.93237,15.33766,23.5138,23.048,4.136,4.20627,7.82446,8.85295,11.697,13.3162a45.18677,45.18677,0,0,0,3.76233,4.44648c9.68067,8.57877,16.03382,19.75645,23.38782,30.10622,10.49988,14.777,20.33692,30.02534,27.14539,46.94912q7.04791,17.51882,13.60657,35.23325c4.32837,11.62767,4.49939,24.48828,8.61084,35.85152,4.71362,13.02763,1.43543,26.09288,4.03162,39.04274,2.01147,10.03319,1.102,21.52037-1.70056,31.46268-5.42188,19.23388-8.07679,39.06615-15.79334,57.94595-6.26282,15.32333-12.50122,30.62293-20.14722,45.24405-4.75366,9.09-11.15113,17.35864-17.15284,25.75172-11.11682,15.54634-22.22742,31.10994-33.83789,46.28638-7.65979,10.01233-15.002,20.26566-22.95008,30.09848-8.69189,10.75326-16.641,22.28571-24.92261,33.473-7.08948,9.57674-14.17273,19.16044-21.09632,28.857-7.88208,11.039-16.207,21.71868-23.33215,33.357-6.95008,11.35226-15.83948,21.50324-23.60755,32.37435-10.599,14.83316-20.23487,30.41536-31.61524,44.61023-9.38208,11.70215-16.59278,24.91764-27.09668,35.885-7.208,7.52625-11.70325,17.57426-18.38685,25.6928-8.86206,10.76449-18.46655,20.94865-28.16211,30.98629-5.46314,5.65606-12.011,10.25394-17.60938,15.79387a229.00808,229.00808,0,0,1-31.67066,26.19017c-8.628,5.91762-16.44275,13.01884-25.06372,18.94793-15.13184,10.40643-30.87415,19.87753-46.48866,29.552-19.72168,12.21953-40.92847,21.36282-61.51478,31.63958-9.599,4.79172-19.60022,9.83013-30.39941,12.89233-14.91285,4.22847-29.17371,10.73167-43.765,16.12252-9.4049,3.47479-18.80054,7.03314-28.38367,9.95261-10.82385,3.29741-21.85828,5.70266-32.45569,9.98274-7.734,3.12345-16.37842,3.93166-24.52747,6.10708-13.73816,3.66706-27.8302,5.61752-41.43909,10.21332-10.37122,3.50236-21.79639,3.8121-32.69276,5.86114-8.22644,1.5469-16.32458,3.77062-24.54431,5.35961-4.84546.93668-9.81653,1.22691-14.73194,1.80065-10.40478,1.21471-20.824,2.3201-31.21045,3.6745-6.41626.83676-12.764,2.19518-19.17823,3.05219-6.13269.8192-12.61963-1.54019-18.46533,2.34487-1.21082.80468-3.22241.50543-4.86865.54117-31.54981.6883-63.10219,1.27888-94.64809,2.11259-3.77832.09992-7.49,1.86617-11.29016,2.19323-5.25037.45187-11.168,1.773-15.66651-.05831-4.59558-1.87116-8.84546-2.07746-13.38013-2.20348-4.32977-.12053-8.668.07027-12.99823-.042q-36.82728-.95449-73.65235-1.99157c-11.15815-6.05036-24.374.5075-35.52565-5.76208-.78112-.43906-1.97009-.11992-2.962-.22362-15.67438-1.638-31.5373-2.29034-46.96626-5.22225-14.70556-2.79442-29.47082-5.21968-44.15247-8.03594-19.33685-3.70914-38.41474-8.86991-57.46992-13.91234-17.49213-4.6291-34.91742-9.57869-52.16736-15.03359-16.637-5.26092-33.00294-11.37568-49.50581-17.06359-11.05676-3.81088-22.47571-6.77841-33.1438-11.46266-17.583-7.72059-34.70155-16.50046-51.99153-24.884-7.88708-3.82419-15.80078-7.60836-23.54492-11.70788-6.27564-3.322-12.44959-6.87931-18.43134-10.703-10.9194-6.98032-21.83612-13.98907-32.437-21.43663-13.54684-9.51733-26.95581-19.25072-40.10828-29.304-21.98908-16.80727-40.05414-37.817-59.51755-57.26125-9.78138-9.77169-16.91019-22.28193-24.75663-33.87941-9.53943-14.09983-17.69019-29.22236-28.06147-42.65305-11.14029-14.42655-20.44772-30.01814-31.08628-44.73552-7.69961-10.65165-13.98886-22.33183-21.82117-32.875-11.9545-16.09251-22.812-32.84965-33.59465-49.725-7.63452-11.94833-17.25888-22.60791-25.5143-34.18525-6.13918-8.60945-11.30127-17.90951-17.28978-26.63375-4.20464-6.12526-9.163-11.72856-13.59482-17.70559-2.09006-2.81882-3.49843-6.1477-5.62555-8.93279-5.69819-7.46092-12.75556-14.12631-17.22739-22.23454-11.53859-20.92169-27.55077-39.332-34.71641-62.754-3.40721-11.137-8.46-21.7629-12.48123-32.72515-1.33771-3.64662-1.8197-7.61219-2.63192-11.44485-3.45324-16.29533-8.0862-32.42779-6.53885-49.40348.1708-1.87385.02246-4.32717-1.04595-5.65033-2.31708-2.86945-1.90337-4.74141-.11283-7.85863,1.49053-2.5949.93784-6.38047,1.2239-9.64445.94647-10.79865.85231-21.81079,3.05188-32.34593,2.62957-12.5946,7.34378-24.744,10.91862-37.15425,7.06072-24.51188,18.6982-46.9712,32.92275-67.80633,8.76424-12.83731,18.15772-25.40227,28.28347-37.45106a424.677,424.677,0,0,1,39.53485-41.07347c16.13879-14.66473,34.13169-27.32558,51.60859-40.47276,10.6948-8.04534,21.54-16.02919,33.02247-22.85683,15.8472-9.423,30.99265-20.06565,48.12241-27.38423,8.63092-3.68752,16.16965-9.87542,24.71284-13.83139,20.02475-9.27274,40.32187-17.9634,60.57926-26.72695,11.29157-4.88488,22.64411-9.65089,34.11734-14.08783,10.2454-3.96207,20.63917-7.56428,31.06584-11.02967q26.25275-8.72516,52.6449-17.02831c8.34986-2.6149,16.87976-4.65231,25.31275-7.00633,8.12927-2.26933,16.178-4.85709,24.37067-6.86208,13.202-3.23086,26.50055-6.06691,39.74189-9.14009,3.44824-.80032,6.79883-2.03812,10.25976-2.76249,5.58362-1.16857,11.20136-2.21208,16.84211-3.05949,5.84015-.87739,11.756-1.27226,17.57776-2.24328,3.16278-.52751,6.16315-1.95793,9.29791-2.73474,16.49628-4.08787,33.25678-6.439,50.15333-8.25992,7.94-.85571,15.62342-3.88418,23.51319-5.48436,5.15735-1.046,10.47693-1.29214,15.72309-1.90258,10.04034-1.16834,20.41229-1.15633,30.02637-3.8473,9.48858-2.65583,19.68085-.35345,28.652-5.10272a7.34866,7.34866,0,0,1,2.91376-.50686c11.54913-.69824,23.09424-1.79519,34.65149-1.94619,17.83179-.233,35.38807-5.04313,53.32844-2.99154,24.15235-6.55882,48.78046-1.96714,73.1692-2.888,10.04517-.37928,20.11316-1.38159,30.29346-.42512,9.91211.93137,20.0033-.228,29.97425.30615,17.062.91395,33.05884-3.29836,48.8816-8.85493,9.76636-3.42975,19.58008-6.72606,29.3335-10.19185,16.47571-5.85452,32.87061-11.94,49.39344-17.65731,14.38172-4.97646,29.192-8.84376,43.26282-14.55454C-66.29009-148.909-51.5-151.50695-38.23515-158.81324c7.82752-4.31131,17.01917-6.1775,25.639-9.01679,13.57959-4.473,27.22669-8.743,40.78516-13.27805,13.472-4.50619,26.87843-9.20937,40.29872-13.86919,22.02429-7.64733,44.08179-15.20292,66.0387-23.03949,15.81775-5.64547,31.20911-12.67639,47.30384-17.30792,22.162-6.37748,43.35951-15.436,65.49147-21.90553,13.89722-4.06237,27.24426-10.15288,41.10779-14.65785,13.52747-4.39571,26.73121-9.77578,40.15015-14.51759,17.07947-6.03538,34.23866-11.84545,51.35072-17.78918,7.327-2.545,14.61133-5.2127,21.93421-7.76966,10.36951-3.62074,20.71973-7.30312,31.15723-10.718,3.41638-1.11775,7.08691-1.44679,10.62646-2.20493,3.12977-.67033,6.24036-1.43079,9.3567-2.16227.92993-.21827,1.9663-.87321,2.75817-.64622,5.29566,1.51812,10.57935,3.10088,15.7898,4.88747,11.69385,4.00972,15.98487,14.73531,21.65284,24.17592q3.4856,5.806,6.76318,11.736c4.21228,7.653,8.24707,15.40487,12.53455,23.015,5.09082,9.0353,10.50318,17.89119,15.51392,26.96938,2.66394,4.8261,4.35876,10.20911,7.20862,14.90583,10.07251,16.6,19.13733,33.72228,28.1947,50.89079,9.90381,18.77277,21.32178,36.74209,31.813,55.21292,6.89148,12.13309,12.67432,24.93716,20.12939,36.69622,6.7566,10.657,12.36536,21.9968,18.44447,32.9218,7.10083,12.7607,16.89966,25.12284,17.599,40.66668.29065,6.46059-1.47022,13.05171-2.60425,19.53-2.32544,13.28659-12.18567,22.32107-19.16858,32.931-5.46106,8.29784-12.15821,15.85312-17.8462,23.893-10.25513,14.49526-22.82727,27.18069-32.01148,42.54995-3.16211,5.2916-8.83044,9.32525-12.5686,14.817C562.48357,135.043,556.62505,141.21159,550.153,149.0482Zm-57.42457,50.10885c1.62781.93119,3.60352,1.63614,5.0282,2.94173,15.26392,13.98962,29.67688,28.77233,41.71107,45.70746,5.23523,7.36747,9.1455,15.74512,14.32629,22.90228,9.75,13.46912,14.41077,28.928,20.87513,43.7041,6.30322,14.40745,8.45788,30.03931,10.1654,45.27437a187.47594,187.47594,0,0,1-2.93042,58.2421c-.72033,3.53694-.90991,7.23364-2.03784,10.62633-3.3446,10.06057-6.69592,20.14451-10.69483,29.95458a225.62226,225.62226,0,0,1-11.7727,24.53335c-3.7124,6.66783-8.7367,12.59576-12.62024,19.18106-6.97571,11.82847-15.75184,22.28462-24.85889,32.37869-8.115,8.99489-17.7804,16.59018-25.92591,25.561-12.64649,13.92843-27.657,25.07922-42.398,36.38177-15.68481,12.02629-32.68982,22.347-49.25721,33.201a168.47878,168.47878,0,0,1-16.07947,8.9664c-15.3772,7.81867-30.83154,15.48558-46.25464,23.21385-9.6222,4.82162-19.02894,10.15061-28.91859,14.34139-12.23437,5.18443-25.16577,8.76938-37.25708,14.23611-16.01612,7.24127-32.76478,12.25674-49.17506,18.30331-19.16357,7.06132-38.78919,12.4074-58.34473,18.05895-13.33191,3.85285-26.79725,7.25285-40.239,10.71483-10.36121,2.66853-20.75037,5.2436-31.18519,7.60348-4.16553.942-8.552.90227-12.72327,1.8259-7.21936,1.5985-14.30823,3.78783-21.52917,5.37767-6.98267,1.53726-14.079,2.5508-21.09705,3.93727-11.43934,2.26033-22.78358,5.11831-34.30006,6.84381C-9.62626,765.3966-24.618,766.75563-39.553,768.4932c-.98682.1148-2.21912-.06063-2.91248.46175-4.74866,3.57812-10.2511,1.73953-15.39929,2.43271-5.10022.68659-10.0846,2.68841-15.174,2.91959-17.44459.792-34.78456,1.77076-52.09864,4.69035-11.85169,1.99865-24.02784,1.0494-36.20643,2.84212-19.25391,2.83407-39.07069,2.71049-58.62965,2.43869-45.23755-.62828-90.5251,2.46491-135.71779-1.798-16.351-1.54239-32.7038,1.3295-49.29566-2.60521-12.5124-2.96716-26.09626-.788-39.26936-3.085-12.9621-2.26021-26.41681-1.69708-39.655-2.38037a7.56318,7.56318,0,0,1-2.95722-.2912c-10.243-5.39256-21.847-2.16042-32.61554-5.3534-9.24585-2.74147-19.29712-2.77246-28.99335-3.99388-5.21393-.65657-10.50043-.9579-15.62836-2.024-7.24494-1.50615-14.29035-4.08159-21.573-5.26812-9.00434-1.46687-18.19678-1.52579-26.94971-4.762a76.21194,76.21194,0,0,0-14.12165-3.32339c-12.18854-1.993-24.19947-4.46478-36.19251-7.64581-18.11316-4.80466-36.48261-8.42437-54.49909-13.95734-18.21924-5.59531-36.904-9.70887-54.87678-16.30259-22.2146-8.14977-44.95771-15.00053-66.73924-24.15505-28.7533-12.08484-56.8364-25.77222-85.11274-38.97368-7.08173-3.30632-13.90018-7.21773-20.662-11.15585-8.997-5.23982-17.97742-10.53831-26.6807-16.24464-12.60889-8.267-25.11823-16.70553-37.37165-25.48687-8.14142-5.83442-15.84-12.30029-23.57624-18.678-3.01422-2.48492-5.56384-5.52815-8.36682-8.27445-11.10037-10.87581-22.4227-21.5352-33.25614-32.66989a231.13214,231.13214,0,0,1-20.60315-23.59173c-5.44048-7.37461-8.82895-16.25684-14.23879-23.65926-10.31155-14.10966-15.85408-30.34039-21.84227-46.3486-2.59961-6.9494-2.9186-14.72043-5.13359-21.85141-3.00914-9.68783-5.43807-19.36766-5.44605-29.5792-.01456-18.63849,1.143-36.88861,5.38153-55.38442,3.97316-17.338,10.17656-33.39978,17.55819-49.21067,3.53952-7.58151,8.26416-14.65686,12.88324-21.67812,7.58073-11.52317,14.52123-23.6817,23.54-33.99262,12.09732-13.83047,25.80915-26.26727,39.03394-39.09006q13.293-12.88891,27.19089-25.14931c7.64628-6.72523,15.68168-13.01372,23.63105-19.38815,6.76965-5.42842,14.56058-9.89247,20.29334-16.23366,8.91412-9.8602,20.86734-15.32918,30.79731-23.63742,6.95681-5.82076,14.714-10.72338,22.32031-15.722,9.21424-6.05523,18.50177-12.02647,28.01963-17.58594,12.602-7.361,25.26782-14.65937,38.25693-21.29939,13.62143-6.96327,27.51923-13.43475,41.55558-19.5242,11.60132-5.03309,24.14917-8.13177,35.23218-14.04473,11.04718-5.89386,22.89875-8.95527,34.36549-13.33666,5.64844-2.15825,11.34393-4.19353,17.01807-6.28447-2.67237-1.15624-5.34791-1.73742-7.65113-1.05806-11.47015,3.38317-22.82764,7.1452-34.25263,10.68425-14.70447,4.55493-29.468,8.92221-44.14216,13.57169-8.06781,2.55629-16.12817,5.21837-23.97488,8.372-16.93012,6.80425-33.81187,13.74615-50.53987,21.02984q-22.01336,9.585-43.6174,20.0991c-8.56391,4.16217-16.59244,9.4134-25.09364,13.71748-34.5697,17.50247-66.48731,39.11471-97.41423,62.28959-4.21582,3.15906-8.66086,6.05724-12.60589,9.52386-9.83227,8.63988-19.83257,17.14709-29.03042,26.43447-10.68762,10.79169-21.02071,22.00372-30.70174,33.69958a269.21367,269.21367,0,0,0-21.68586,30.22468c-8.37524,13.57709-16.8993,27.29362-23.1129,41.90419-5.81786,13.68018-9.08611,28.50942-12.73329,43.01953-2.05635,8.18106-3.78507,16.76373-3.60807,25.122.411,19.41053-2.80506,38.98868,2.92608,58.244,2.59932,8.73315,2.381,18.37193,5.43017,26.88853,5.43915,15.192,11.32787,30.25414,19.20368,44.517,9.917,17.95934,21.53981,34.66286,33.94674,50.92909,7.37623,9.6708,14.20087,19.76432,21.19684,29.72157q12.632,17.97894,25.12905,36.05244,14.47062,20.89851,28.83733,41.86863c7.58758,11.11682,14.92926,22.40235,22.5885,33.4689,7.24759,10.4717,14.94593,20.63365,22.11933,31.15428,8.4892,12.45009,16.581,25.17005,24.93088,37.716q17.14079,25.75441,34.43064,51.40927c7.31631,10.8145,13.88919,22.33622,22.50986,32.01593,12.706,14.26685,27.01868,27.09647,40.50385,40.68027,19.24329,19.38394,41.50947,35.09009,64.07362,50.01144,21.12769,13.97138,43.89893,25.52909,66.30817,37.47193,15.19343,8.09706,30.78224,15.56073,46.62092,22.30718,13.18927,5.61813,26.96088,9.89272,40.54511,14.55708,17.28949,5.937,34.51722,12.10778,52.01417,17.37285,21.11676,6.35473,42.31336,12.63224,63.80024,17.51595,19.759,4.49113,39.94386,7.11854,59.95161,10.50464,6.76233,1.14444,14.01978.93948,20.22687,3.41489,9.05878,3.61276,18.58,3.41952,27.78931,5.09818,15.46717,2.81918,31.35279,2.39891,47.06605,4.77867a314.62188,314.62188,0,0,0,41.40137,3.26191c44.98438.76552,89.98994.29157,134.98739.27607,2.6615-.001,5.68738.63157,7.91833-.39209,7.67774-3.52273,15.71509-1.85286,23.58509-2.5436,7.79041-.68366,15.49793-2.33206,23.28992-2.97119,11.87378-.97389,23.79-1.42466,35.68494-2.15346a29.66619,29.66619,0,0,0,3.8595-.79907c8.59253-1.70927,17.15442-3.59861,25.7887-5.06243,9.02222-1.52958,18.15332-2.4238,27.166-4,12.19007-2.13211,24.31946-4.61472,36.46192-7.01277,9.00476-1.77845,18.0918-3.268,26.96-5.58348,16.28821-4.25275,32.545-8.68667,48.627-13.65334,21.91394-6.76768,43.93531-13.35262,65.37989-21.42406,18.83008-7.08719,36.99622-15.96747,55.32813-24.335,12.45923-5.68693,24.99109-11.32433,36.97364-17.92134,23.4784-12.926,46.64588-26.41611,68.3274-42.28708,16.23292-11.88257,32.30689-23.96071,46.59864-38.179,9.59058-9.54125,18.96155-19.30684,28.29468-29.10147,8.12354-8.52514,16.976-16.55792,23.89344-25.98961,17.493-23.85153,33.97034-48.444,51.06007-72.59446,14.77283-20.87606,29.8396-41.54437,44.75391-62.32076,10.34363-14.409,20.3429-29.077,31.04444-43.2146,15.43811-20.39492,31.58972-40.25012,47.02784-60.6451,12.247-16.17955,23.98914-32.74564,35.74585-49.28886,7.55762-10.63445,15.764-20.99263,21.84925-32.44591,9.86328-18.564,19.42529-37.25977,24.31983-58.18713,3.51745-15.03969,7.34485-29.815,7.30456-45.34354-.031-11.99188.01221-23.98389-.02185-35.97571a38.3654,38.3654,0,0,0-.377-7.959c-2.41577-11.11413-4.61011-22.3103-7.78272-33.21575a258.70014,258.70014,0,0,0-10.35559-28.28764,169.18434,169.18434,0,0,0-11.70667-23.47523c-7.75305-12.48444-16.08533-24.63114-24.631-36.5938-4.56909-6.39627-10.43323-11.85958-15.11988-18.1829-12.02563-16.22579-26.65112-29.69308-42.2721-42.00032C510.58512,176.681,502.48637,186.87488,492.72843,199.15705ZM619.2868-3.46861c-4.72681-8.35225-8.488-14.7652-12.02515-21.29921-6.64392-12.2728-12.94739-24.73413-19.78687-36.89537-6.67053-11.86043-14.07227-23.311-20.70972-35.18893-5.816-10.40769-11.017-21.15873-16.49316-31.75624a3.43581,3.43581,0,0,0-.52869-.84542c-8.58826-8.76719-11.95569-20.6573-18.27271-30.80782-7.47253-12.007-13.19556-25.08636-20.07117-37.4825q-21.18695-38.199-42.84791-76.13483c-4.13232-7.24647-8.948-14.10383-13.46338-21.16-15.35571,5.63249-29.28821,10.96414-43.37195,15.86122-26.30909,9.148-52.704,18.0496-79.06752,27.041-7.99048,2.72522-16.024,5.32741-23.98633,8.13185-9.43738,3.324-18.70679,7.16736-28.25183,10.13336-13.92872,4.32818-27.44666,9.69746-41.08314,14.8069-15.56092,5.8306-31.418,10.87178-47.14881,16.24919-2.73694.93561-5.48328,1.84443-8.22913,2.75343-11.967,3.9614-24.00354,7.72582-35.88684,11.92348C131.55-182.3056,115.44712-175.08494,98.62363-170.424c-17.56177,4.86547-33.8446,13.00548-51.35523,17.87376-11.55176,3.21164-22.76831,7.64336-34.09827,11.63264-12.48462,4.39579-24.9303,8.9022-37.38746,13.37561-13.43506,4.82461-26.8252,9.77737-40.30518,14.47251-15.95129,5.556-31.97229,10.91295-47.97461,16.322-6.40723,2.16578-12.895,4.10239-19.25941,6.38458-13.99634,5.019-27.8551,10.43291-41.92078,15.24544-21.47986,7.3493-43.14771,14.15071-64.621,21.51849-16.50513,5.6632-32.79676,11.9444-49.25159,17.75792-14.36329,5.07458-28.84083,9.82519-43.2331,14.81937Q-353.2927-13.21083-375.7305-5.19341C-388.519-.61316-401.15232,4.41713-414.02531,8.73978c-22.152,7.43857-44.51007,14.26627-66.64283,21.7598-17.15723,5.80895-34.04908,12.39636-51.16065,18.34548C-543.74511,52.988-555.951,56.31126-567.815,60.58945c-13.97767,5.04047-27.56818,11.1729-41.60731,16.01986-27.3,9.42519-54.83131,18.17945-82.183,27.45828-6.035,2.04726-11.7212,5.12148-17.9676,7.90053,3.27423,5.61154,5.99237,10.07693,8.52491,14.6451,9.05877,16.34046,17.9881,32.753,27.1106,49.05768,3.18621,5.69468,6.86316,11.11285,10.18518,16.73451,4.77,8.07151,9.5304,16.15223,14.09479,24.34042,6.15344,11.03874,12.1059,22.1894,18.1648,33.281,4.817,8.81824,9.68286,17.60989,14.49365,26.43148,6.39569,11.72777,12.533,23.60333,19.20539,35.17109,5.66406,9.81958,12.31891,19.07554,17.84235,28.9674,9.50738,17.02632,18.42688,34.37965,27.7149,51.52979a62.637,62.637,0,0,0,6.0254,8.869c1.87085,2.36836,4.03765,4.35169,7.635,2.69,2.348-1.08466,5.0188-1.44558,7.46716-2.3428,14.266-5.22743,28.48591-10.581,42.76612-15.76879q21.02673-7.63868,42.14466-15.02609c16.22711-5.65106,32.50214-11.16573,48.77558-16.68284,12.5802-4.265,25.26813-8.22577,37.766-12.717,13.68359-4.91732,27.11988-10.52428,40.81641-15.40311,17.6612-6.29123,35.48224-12.13358,53.21809-18.21687,10.168-3.4876,20.27124-7.165,30.46155-10.585,12.86157-4.31637,25.85681-8.24425,38.66089-12.721,23.574-8.24218,47.02845-16.82509,70.57631-25.1426,13.09241-4.6246,26.2948-8.93762,39.40894-13.5017Q-51.12577,233.26188-15.787,220.8026c12.77772-4.50114,25.50062-9.15781,38.27223-13.67639,10.98755-3.88726,22.01965-7.64831,33.01318-11.51879q24.73976-8.71009,49.45094-17.50143c13.11157-4.66766,26.16443-9.50306,39.3086-14.07636,13.13306-4.56933,26.40039-8.75523,39.51111-13.3858,13.45008-4.75025,26.487-10.99128,40.23707-14.491,18.64844-4.74653,35.95972-12.85281,54.05006-18.92231q14.8136-4.97017,29.61279-9.9836c13.16639-4.42965,26.36146-8.77506,39.49684-13.29431,11.62427-3.99937,23.15186-8.27957,34.78174-12.26173,8.89856-3.047,18.75281-4.37829,26.62622-9.07678,10.31641-6.15622,21.844-8.81373,32.70167-12.10629,15.27283-4.63136,29.62268-11.45037,44.82361-16.0782,15.18458-4.62286,30.0442-10.30753,45.06654-15.46805,11.6405-3.99869,23.33936-7.82879,34.9629-11.87531C580.83989,11.96466,595.53326,6.78685,610.159,1.42788,613.32037.2695,616.16082-1.76343,619.2868-3.46861ZM-51.54021,736.696c-8.15259-11.50342-15.71692-21.57973-22.64148-32.07754-12.68445-19.22986-24.88611-38.77727-37.48816-58.06227-10.067-15.40531-20.48072-30.58395-30.64906-45.92375-13.95349-21.05009-27.62488-42.28982-41.79224-63.19449-9.75745-14.39787-18.48328-29.47319-29.62976-42.98513-6.31141-7.65075-10.84229-16.75006-16.38587-25.05653-7.58447-11.36483-15.51941-22.49793-23.0105-33.9226-4.29041-6.54339-5.47547-7.329-12.444-4.28581-4.16272,1.81779-8.00184,4.39457-12.199,6.11117-14.39832,5.8887-28.97028,11.35781-43.31989,17.35985-10.14588,4.24373-20.0152,9.144-30.05115,13.65511-13.6084,6.11708-27.28925,12.07374-40.88185,18.22535q-22.73016,10.28721-45.34778,20.82189c-11.46186,5.36005-22.79718,10.98982-34.21589,16.44294q-9.28555,4.43429-18.66315,8.67575c-10.93982,4.976-22.369,9.08316-32.76343,15.00816-21.50434,12.25814-44.95362,20.5923-66.1255,33.47847-3.27661,1.99431-8.3064,1.44436-11.148,3.75952-9.83569,8.01338-21.66065,12.082-32.68561,17.70236-13.92048,7.09646-28.13953,13.61162-42.011,20.79921-14.71917,7.62677-29.42822,15.33613-43.6496,23.83212-6.79993,4.06232-11.76215,1.78967-17.25568-1.59423-12.88251-7.93542-22.60706-19.63317-34.3747-28.983-14.76129-11.72837-28.97357-24.18756-44.12287-35.50646-12.44867-9.30115-24.00846-19.89162-37.00513-28.30075-4.1763-2.70213-6.86035-6.75121-11.25992-8.99537a123.12465,123.12465,0,0,1-14.42279-9.075c-7.36539-5.1557-14.355-10.86648-21.86353-15.79466-11.65177-7.64764-23.55271-14.92227-35.45173-22.18538-7.47726-4.56414-14.94714-9.21106-22.768-13.12735-15.08084-7.55181-29.68271-16.21054-46.63318-19.57468-3.82975-.76009-7.16837-4.34882-10.55445-6.87467-2.84433-2.1218-3.01874-4.93629-1.1644-7.90126a70.08658,70.08658,0,0,1,4.68085-7.37724c8.71027-10.66543,17.60123-21.1833,26.347-31.82019q5.57126-6.776,10.81708-13.81791c8.10391-10.89868,15.8533-22.07009,24.21064-32.76876q15.6139-19.98793,32.04892-39.329c4.81052-5.65515,9.57315-11.24741,13.834-17.3673,5.18475-7.44683,11.32208-14.22659,16.95169-21.37027,4.37228-5.54809,9.159-10.71477,13.15833-16.63221,4.548-6.72932,10.47479-12.51677,15.66516-18.8263q8.95408-10.88469,17.65064-21.98006c5.77041-7.39071,11.24838-15.01041,17.0593-22.36818,5.24978-6.64734,10.78012-13.07319,16.17941-19.6028,4.92768-5.9591,10.03858-11.77937,14.72412-17.92329,7.68592-10.07827,14.41083-20.97945,22.83253-30.37784,6.79266-7.58048,12.26453-16.10654,18.96667-23.60363,6.62012-7.40529,12.25489-16.13661,23.30134-18.74115,9.08331-2.14162,17.78674-5.9203,26.61939-9.08248,3.67712-1.31645,7.16962-3.18383,10.89014-4.33614,10.82477-3.3527,21.84235-6.11964,32.55768-9.77916,10.72931-3.66437,21.07093-8.45863,31.78937-12.15926,13.79645-4.76327,27.8902-8.66621,41.688-13.42564,15.2569-5.26265,30.2572-11.26521,45.49152-16.59677,17.11347-5.98923,34.40119-11.4799,51.54017-17.39841,10.18872-3.51849,20.17957-7.6085,30.36261-11.14481C-442.73948-3.34-429.20573-7.651-415.759-12.21533c11.66547-3.95963,23.2937-8.03,34.91614-12.11486,10.39734-3.65421,20.72339-7.51463,31.15467-11.06755,12.889-4.39,25.89716-8.43167,38.77039-12.86577,7.77509-2.678,15.39185-5.81527,23.07972-8.7462l-.29554-2.03348c-3.48913,0-6.97815-.0082-10.46728.00131-28.51252.07759-57.00337-.49756-85.4734,2.64605-16.76356,1.851-33.76435,1.55541-50.658,2.23586-.99518.04008-2.17108-.14185-2.95178.313-10.5243,6.13179-22.50355,2.20409-33.82111,5.02428-16.68537,4.15778-34.42207,4.09886-51.70863,5.8591a23.53155,23.53155,0,0,0-2.87854.6219c-7.535,1.74554-15.0025,4.54963-22.61713,5.0309-17.82752,1.12665-34.83942,6.20605-52.23774,9.3613-4.8006.87065-9.587,1.86064-14.32752,3.01176-8.84985,2.149-17.63806,4.55325-26.494,6.67591-14.91,3.57373-30.3161,5.70443-44.68055,10.79133-25.67853,9.09346-51.98609,16.19648-77.366,26.387-19.36444,7.77515-38.59918,15.793-57.59687,24.3643-10.39483,4.68983-20.43448,10.24571-30.33649,15.92931-17.77585,10.2031-36.02271,19.81528-52.69767,31.61518-9.221,6.52515-17.88611,14.20323-26.99591,21.13274-8.9,6.76988-17.56141,13.85261-26.34458,20.77639-7.93527,6.25536-16.34781,11.9895-23.75254,18.81715-18.67178,17.21657-34.58271,37.36389-55.48926,52.23285a17.32557,17.32557,0,0,0-2.55088,2.96265c-6.03213,6.92012-12.19311,13.73276-18.07144,20.78091-5.39972,6.47416-10.57694,13.139-15.70809,19.83026-6.72781,8.77328-11.66418,18.642-17.16423,28.17991a158.94316,158.94316,0,0,0-14.70937,33.913c-.55794,1.86226-.5647,3.91013-1.25285,5.70931-4.41255,11.53654-8.34146,23.339-8.02327,35.73716.45552,17.74883-2.67878,35.687,3.05046,53.233,3.50575,10.73673,4.79175,22.31816,9.20045,32.61078a298.01575,298.01575,0,0,0,22.70588,43.11151c10.68761,16.74482,24.1314,31.0465,36.90917,45.94278,5.72662,6.676,13.18054,11.86276,19.77973,17.804,4.40847,3.96893,8.45944,8.36863,13.08963,12.04874,5.8692,4.66491,12.24051,8.69258,18.25733,13.17981,10.33871,7.71046,20.02417,16.455,30.96942,23.15823,18.61887,11.4027,37.76258,22.01836,57.13514,32.10248,17.63163,9.17807,35.59791,17.82862,53.89332,25.58935,22.51212,9.54929,45.39561,18.2678,68.347,26.7261,20.98144,7.73242,42.54407,13.67981,64.226,19.198,14.135,3.5974,28.073,7.96092,42.16156,11.74985,12.8451,3.45429,25.67469,7.08072,38.69166,9.75266,15.943,3.27277,32.07184,5.64362,48.12476,8.37814,5.18622.88349,10.42286,1.50725,15.57191,2.564,7.88665,1.61863,15.65716,3.86834,23.58649,5.1976,10.97552,1.84006,22.05414,3.06379,33.08582,4.57165,8.44616,1.15432,16.86188,2.6,25.33777,3.452,13.0462,1.31145,26.13257,2.222,39.20081,3.3157.65845.055,1.30194.27913,1.96039.34488,14.74689,1.47407,29.47632,3.18237,44.25043,4.30058,7.62281.57716,15.32612.03733,22.99134.13493a63.879,63.879,0,0,1,8.887.721c4.16492.64169,8.28315,2.25,12.42621,2.26716,41.665.17347,83.33663.50969,124.99422-.07466,19.11366-.26815,38.15919,1.527,57.459-2.36025,15.29919-3.08159,31.52283-.47639,47.39246-3.106,13.98743-2.31779,28.74012-.2518,42.61939-2.91178,8.84925-1.69574,17.55494-1.765,26.287-2.86238C-58.82658,740.64914-55.94475,738.60328-51.54021,736.696ZM-151.90289,387.15635c7.8855,1.81779,13.51172,3.11588,19.13843,4.41177q16.11621,3.71209,32.23291,7.42085c5.35022,1.22971,10.66956,2.62783,16.06238,3.63,9.952,1.84945,20.04945,3.02128,29.90113,5.2816,13.859,3.17962,27.47608,7.41267,41.33375,10.59931C-.9268,421.33,11.775,422.31573,23.83249,426.44716a55.27118,55.27118,0,0,0,12.27868,2.94777c8.79725.87336,17.50709,1.69841,25.85462,5.03724a64.86169,64.86169,0,0,0,12.21534,3.03988c10.25622,1.91172,20.64246,3.21994,30.80188,5.53547,13.56507,3.09184,26.79456,8.08559,40.48634,10.06161,12.30041,1.77521,23.76416,6.43043,36.0354,8.05907,11.88159,1.57691,23.61353,4.2877,35.403,6.54412,3.86755.74021,7.75379,1.44967,11.55384,2.46345,10.24035,2.73208,20.35376,5.99033,30.67407,8.359,14.89124,3.41764,29.91883,6.243,44.892,9.30293,4.15442.849,8.35669,1.48925,12.47668,2.47656,9.72681,2.33078,19.38331,4.96386,29.13673,7.17173,5.11279,1.15737,10.67553.86446,15.49109,2.6731,7.34973,2.76032,14.562,5.17742,22.51282,5.50265,4.88574.19989,10.03979.70715,14.52588,2.46894,11.57324,4.54548,23.885,5.64088,35.76648,8.66069,9.72523,2.4718,19.3639,5.31569,29.1526,7.49325a99.41226,99.41226,0,0,0,17.656,2.17737c2.72779.106,6.417-.65341,8.12964-2.47053,6.99427-7.42109,13.63575-15.21127,19.95594-23.221a302.6442,302.6442,0,0,0,25.64759-39.0345,196.55506,196.55506,0,0,0,20.86816-56.35958c1.01453-4.76623,3.36756-9.559,3.11048-14.22989-1.04859-19.0504,2.20508-38.05963-2.6051-57.27266-4.12195-16.4641-8.14661-32.74265-15.65821-47.95076-6.62207-13.40672-13.695-26.5611-22.73621-38.61355-8.243-10.98841-15.73047-22.54105-23.87793-33.60431-1.79322-2.43484-4.96607-3.85487-7.47339-5.71981-9.37342,11.7909-9.61841,11.02483-22.92493,15.27514-13.65333,4.36109-27.87208,1.50634-41.62257,5.20468-9.407,2.53025-19.71155,1.70653-29.60913,2.45949a31.25755,31.25755,0,0,0-3.78724.99371c-7.90161,1.64541-15.77343,3.47265-23.72632,4.82125-8.36328,1.41832-16.80371,2.38665-25.21533,3.51419-3.90918.524-7.93152.55581-11.728,1.50652-14.53162,3.63839-29.00611,7.48386-44.08021,8.17118a5.07461,5.07461,0,0,0-.92981.32841c-10.91174,2.87207-21.77307,5.95953-32.7544,8.53625-8.90259,2.089-18.06531,3.11984-26.90454,5.419-11.881,3.09032-23.41492,7.59121-35.36451,10.32061-16.11194,3.68-31.97229,8.18868-47.83814,12.71617-11.82325,3.37383-23.56788,7.02423-35.33594,10.58954-11.80323,3.576-23.57813,7.24688-35.39662,10.77175-3.39856,1.0136-6.9812,1.43088-10.34814,2.52543-12.92237,4.201-25.79859,8.5446-38.67835,12.87555-14.12842,4.75062-28.2815,9.43218-42.35084,14.35213-15.90784,5.56286-31.70887,11.42985-47.60621,17.02369-9.48852,3.33871-19.1532,6.18644-28.59436,9.6483-13.94617,5.11367-27.7981,10.49134-41.61231,15.95325C-143.71356,382.30082-146.82574,384.40859-151.90289,387.15635ZM599.5252,27.7785c-4.77893,1.62568-8.11463,2.67826-11.39087,3.89122-7.93445,2.93765-15.78186,6.12154-23.77369,8.891-11.33386,3.92761-22.78662,7.51094-34.14856,11.35959-7.40772,2.50916-14.69654,5.37254-22.12464,7.816-9.23682,3.03841-19.41406,4.31795-27.65845,9.027-13.85132,7.91151-29.41956,10.18468-43.84778,16.00125-13.22925,5.33327-27.08314,9.09865-40.55836,13.84805-22.60425,7.967-45.11842,16.18876-67.68592,24.26063-14.61194,5.22634-29.26588,10.33556-43.87367,15.57366-13.10693,4.7-26.12586,9.64934-39.27356,14.23044-23.26246,8.1053-46.60279,15.9868-69.8921,24.01518-18.11841,6.24573-36.24415,12.47383-54.29994,18.89675-12.54846,4.46381-24.75244,10.04923-37.5177,13.71781-27.14271,7.8008-53.21058,18.60092-79.94911,27.50364-15.04432,5.009-29.88074,10.63859-44.896,15.73847-16.58935,5.63454-33.35156,10.766-49.90113,16.51157-20.1803,7.00618-40.20374,14.462-60.31983,21.65427-28.07166,10.03666-56.1388,20.08669-84.27052,29.95287-6.73547,2.36225-13.85217,3.651-20.5586,6.08091-13.97412,5.06323-27.675,10.89088-41.69922,15.80283-23.86573,8.35893-47.93409,16.13838-71.84236,24.37867-20.54883,7.08237-41.00263,14.44112-61.48066,21.72789-17.40174,6.192-34.71875,12.62754-52.18256,18.63812-16.54969,5.696-33.35487,10.66445-49.82154,16.58147-7.959,2.85993-15.59913,6.71327-20.62983,14.31564-4.47241,6.75884-9.33545,13.28052-14.34143,19.65977-4.96259,6.32411-10.5965,12.13029-15.437,18.53992-7.022,9.29817-13.50842,18.99831-20.39929,28.398-3.21033,4.37926-6.82929,8.45982-10.27191,12.66847-8.49549,10.38563-17.08283,20.69777-25.46223,31.17612-5.05426,6.32014-9.73505,12.9371-14.67975,19.34673-6.91669,8.966-14.00354,17.80239-20.80151,26.85632-.989,1.31731-.77973,3.533-1.3263,6.38316,9.447-1.73246,16.46582-6.5814,23.81269-10.31506,8.98724-4.56726,17.2749-10.50611,26.24951-15.102,15.68378-8.03162,31.69154-15.42886,47.50416-23.21251,9.91486-4.88048,19.31495-11.19575,29.68439-14.65968,11.61042-3.87841,21.82038-10.24723,32.803-15.16772,16.92511-7.583,33.613-15.69853,50.34693-23.70208,6.44079-3.0805,12.6073-6.75207,19.11865-9.663,12.17475-5.44288,24.59144-10.34574,36.75813-15.80564,15.38611-6.90456,30.55664-14.28893,45.94574-21.18648,11.57734-5.18894,23.38642-9.85922,35.02015-14.92592,3.86346-1.68268,7.384-4.16157,11.26544-5.79118,14.38428-6.03906,28.75489-12.13431,43.32826-17.69107,8.67969-3.30942,17.12427-8.69582,26.7478-5.81368,10.41663,16.22719,20.20325,32.268,30.79932,47.75575,10.60938,15.507,22.02723,30.46159,33.09071,45.65829q.82818-.39325,1.65613-.78663,0-5.45509-.00013-10.91021c.00061-33.64085.18445-67.2834-.142-100.92107q-.10694-11.01333,8.80175-15.35127c9.00013-4.39238,18.4203-7.9561,27.76991-11.59522,13.91308-5.41536,27.92053-10.58875,41.88709-15.86688,1.21484-.45906,2.40906-.97748,3.63879-1.39135,14.50415-4.88207,29.06031-9.61487,43.50953-14.65382,19.26355-6.71773,38.33448-14.003,57.69178-20.43194,20.611-6.84521,41.60841-12.53915,62.16261-19.54058q30.761-10.47836,62.09705-18.90389c17.8523-4.81807,35.47547-10.47975,53.30348-15.39384,17.78613-4.9025,35.54456-10.11395,53.60535-13.75056,16.226-3.26722,32.23829-7.2858,48.36109-10.8419,13.29261-2.932,26.77589-5.16272,40.12965-8.09341,13.04114-2.86206,26.51514-3.75251,39.79725-5.52266,1.62512-.2166,3.26086-.42631,4.85388-.79992,7.20947-1.69079,14.34631-4.54591,21.61878-4.93477a344.80883,344.80883,0,0,0,44.00891-4.84687c11.51661-2.112,23.39869-2.23233,34.07667-3.148,5.328-7.30263,9.73047-13.68176,14.49854-19.77518,4.79089-6.12251,10.12073-11.82426,14.9021-17.95366,8.20349-10.51623,15.97278-21.37381,24.2793-31.80592,8.73291-10.96767,18.0874-21.44163,26.80225-32.42309,13.17993-16.60794,26.40259-33.20587,38.86658-50.346C589.11455,44.38577,597.20562,38.89349,599.5252,27.7785ZM457.1442,546.974c-12.85071-3.24861-24.74866-6.40573-36.72279-9.24193-12.30322-2.91416-24.68274-5.505-37.02429-8.25859-4.10511-.916-8.16663-2.05318-12.29835-2.819-10.24463-1.8988-20.58813-3.32126-30.76013-5.53925-9.80738-2.13834-19.38013-5.34614-29.18116-7.521-13.60889-3.01981-27.823-4.09349-40.89026-8.58187-17.56092-6.03175-36.13648-6.8005-53.7433-12.89313-11.39026-3.94148-24.02-5.07573-35.96448-8.35526a383.06929,383.06929,0,0,0-39.08521-8.13666c-14.101-2.32626-27.6034-7.02-41.97669-8.64476-13.65516-1.54373-26.91822-6.56981-40.3462-10.09309-4.05359-1.06349-8.0282-2.51017-12.13282-3.28289-12.43628-2.34115-25.007-3.94264-37.12988-7.86045-4.59778-1.48591-9.47925-2.10192-14.23792-3.08252-13.67676-2.81851-27.36866-5.56542-41.02589-8.47513-2.79455-.59533-5.40783-2.03061-8.20019-2.64619-13.93689-3.07215-27.843-6.34668-41.88172-8.87485-12.43958-2.2402-24.3512-7.15209-37.21571-7.25993-1.52185-.01275-2.99768-1.38715-4.55859-1.56221-8.343-.93534-16.484-4.53731-24.87537-2.52177-.49121,1.10211-.98523,1.69446-.98694,2.28827-.10315,35.96369-.29748,71.92849-.04834,107.89011.02783,4.01187,1.927,8.42255,4.1106,11.93223,7.17151,11.526,14.76465,22.79651,22.40125,34.02549,8.93225,13.13419,18.24011,26.01457,27.089,39.20359,8.30676,12.38129,15.97,25.19884,24.43152,37.46948,3.94715,5.72414,6.84412,12.89843,14.778,14.81205,5.02307,1.21153,10.09094,2.26508,15.0603,3.66717,16.22242,4.57641,32.371,9.41779,48.62489,13.8772,8.19836,2.24935,17.03394,2.7854,24.74841,6.05755,13.82813,5.86529,28.71436,7.64068,42.72547,12.673a309.82573,309.82573,0,0,0,35.261,10.42071c6.82556,1.568,13.76892,4.80759,21.31982,1.29681,4.30616-2.00218,9.32532-2.52164,14.0586-3.54652,8.92127-1.9318,17.97107-3.36134,26.775-5.71792,8.71167-2.33194,17.17481-5.584,25.76636-8.37265,21.94031-7.12159,44.21216-13.3675,65.745-21.55631,20.27283-7.70973,39.884-17.2112,59.56947-26.38878,12.98975-6.056,25.25257-13.76032,38.45826-19.24084,17.92029-7.437,33.72217-18.34893,50.14014-28.24579,11.4032-6.87412,22.19556-14.75879,33.2804-22.16268,5.091-3.40031,11.09656-5.93806,15.09962-10.31671C450.243,557.07693,457.51724,554.67753,457.1442,546.974ZM-562.4751,415.3803c-4.30792-7.291-8.805-14.74946-13.15253-22.29389-7.75439-13.45686-15.54687-26.89451-23.07416-40.47819-4.87268-8.793-9.07855-17.956-13.97455-26.73525q-18.51938-33.20824-37.429-66.19874c-5.46338-9.54539-11.47113-18.77921-16.95471-28.31362-5.99073-10.41619-11.12678-21.26669-17.85181-31.335-5.53815-8.29134-9.05323-17.90219-13.99738-26.62692-7.82422-13.80693-16.68018-27.066-23.819-41.20278-2.16-4.27721-4.668-6.49386-8.63117-9.5951-5.81683,7.41865-11.13715,14.3775-16.649,21.18129-4.72394,5.83107-9.82684,11.359-14.47156,17.24976-5.37738,6.82-10.19763,14.08556-15.68878,20.80768-9.0879,11.12523-19.36311,21.38045-27.56532,33.10151-7.98437,11.40978-17.54458,21.489-25.45248,32.96444-7.74234,11.23527-18.26612,20.57681-25.81345,31.91657-3.50962,5.27318-8.33133,9.018-11.73816,14.162a246.17563,246.17563,0,0,1-14.92264,20.45646c-9.32853,11.34806-19.97507,21.72058-28.38728,33.68318-7.79922,11.09089-16.61111,21.38216-24.62076,32.27914-5.73065,7.79634-12.0867,15.28892-17.8252,23.206-4.39309,6.06091-9.2185,11.817-13.995,17.59019-5.42872,6.56145-11.18949,12.85475-16.47123,19.52917-3.19122,4.03261-2.075,7.43969,2.6557,9.37893,17.41047,7.13709,34.4112,15.05238,50.232,25.34816,11.1637,7.265,22.20792,14.76075,33.73735,21.405,14.235,8.2035,27.45923,17.81038,40.71878,27.40561,10.44629,7.55931,21.03229,14.946,31.19321,22.874,12.89042,10.05772,26.41956,19.23767,38.6656,30.21358,11.61713,10.41223,24.62512,19.26066,36.81275,29.05614,7.51611,6.041,14.64117,12.56783,23.03919,19.825,5.32043-6.53943,9.84094-12.02385,14.2799-17.57341,3.86591-4.833,7.61463-9.75925,11.461-14.60807,4.99824-6.30081,10.11787-12.50677,15.0434-18.86339,4.6092-5.94836,8.84443-12.19354,13.59095-18.02631,4.89844-6.01949,10.59021-11.41473,15.27252-17.58512,10.363-13.65627,19.6496-28.17912,30.62281-41.307,9.98627-11.94693,18.88342-24.643,28.43732-36.86969,8.23316-10.53654,17.16693-20.52331,25.60791-30.90187C-569.77606,425.81071-566.4068,420.76041-562.4751,415.3803ZM-35.64018,701.05353q-.59528,1.05366-1.19055,2.10746c5.97144,7.912,12.11279,15.7031,17.85535,23.77772,3.91968,5.5115,7.97046,8.69423,14.78137,4.42379,1.52271-.95486,3.86609-.57691,5.82288-.87031,10.25574-1.53812,20.50122-3.1465,30.76636-4.61838,3.87207-.5552,7.78736-.8098,11.68286-1.2014q-.01922-.73929-.03869-1.47871Q4.19967,712.12355-35.64018,701.05353Zm-679.4929-708.644c4.844,3.04219,7.30927,3.00309,11.64234-.53584C-708.04824-7.91653-710.511-7.80319-715.13308-7.59046Z" transform="translate(1220.04686 327.74302)"/><path d="M1470.63116,280.7938c-4.34033-11.73112-8.75268-23.43632-13.00952-35.19769q-30.36548-83.896-60.66651-167.81531-11.86377-32.8005-23.85206-65.55586c-1.14941-3.13281-1.14306-7.75264-7.529-6.60174a46.89027,46.89027,0,0,0-.82642,7.23331c.79371,23.24722,1.10083,46.53226,2.70337,69.72669,4.59229,66.46524,2.88819,133.00782,3.18287,199.52644.15063,33.97481.02661,67.9509.02661,101.92637v10.74205c-7.57691,2.29-87.90163,2.83413-100.61061.73679V-142.46723c7.17114-2.20475,108.02711-3.14015,136.85744-1.17,1.39355,3.34447,3.04321,6.912,4.38818,10.59083q28.92847,79.11606,57.79176,158.256a80.46509,80.46509,0,0,0,3.27979,8.34276c1.99047,3.99645,5.18359,4.13692,7.38452.38313a28.4032,28.4032,0,0,0,1.63159-4.66854q30.1648-82.36162,60.36475-164.71038c1.02344-2.78887,2.35376-5.46527,3.54127-8.19415h127.4734V394.981c-7.4768,2.18359-89.94068,2.45765-100.09156.18323V384.47678c0-79.94125-.21753-159.88349.12377-239.82328.11207-26.24855,1.62061-52.49288,2.59327-78.7353.541-14.59279,1.24267-29.18037,1.98681-43.76444.20142-3.95075,1.08838-7.87829,1.11719-11.82045.01221-1.64428-1.39477-3.29905-2.15625-4.94919-1.74756,1.05767-4.43018,1.71614-5.08252,3.24157-3.00122,7.02024-5.46533,14.27166-8.06885,21.45938q-37.00233,102.15591-73.98316,204.31951-8.30567,22.94472-16.55323,45.91039Z" transform="translate(1220.04686 327.74302)"/><path d="M952.59105,200.797V396.6552c-39.47852.03849-78.26149.02049-117.48366.00915V-143.5546c3.23926-.2023,6.13452-.53983,9.02978-.541,70.99709-.02934,142.00271-.68,212.98807.23073,40.63526.52137,77.26051,14.10227,106.6841,42.92272,22.23511,21.77929,34.8567,49.21583,40.87183,79.56527,6.99878,35.31136,6.73389,70.65193-1.66284,105.71927-6.63647,27.716-19.1001,52.63812-39.56983,72.70109a140.08329,140.08329,0,0,1-74.28761,38.36816,361.99015,361.99015,0,0,1-51.48218,5.16942c-24.3025.85-48.65724.21575-72.98952.216Zm.59717-95.43269c21.72632,0,42.93653.14743,64.14234-.08113a168.46414,168.46414,0,0,0,21.82544-1.751c27.99024-3.97906,44.42213-21.007,45.98438-49.08242a407.82991,407.82991,0,0,0-.09106-53.55492c-1.76489-23.1173-11.47363-39.91808-36.55152-46.47364a102.703,102.703,0,0,0-23.6128-3.31541c-21.2998-.44543-42.615-.178-63.92408-.11278a75.79883,75.79883,0,0,0-7.7727.8156Z" transform="translate(1220.04686 327.74302)"/><path d="M1771.12389-143.83619h10.4729c66.29884,0,132.59889-.227,198.89578.12635a163.70991,163.70991,0,0,1,64.94337,13.50792c30.79053,13.39108,52.1963,35.90334,65.46046,66.50471,9.52685,21.97828,13.44043,45.06283,14.0271,68.85784.57568,23.36772-.81641,46.47684-7.56641,69.06328-16.19043,54.17629-52.59156,85.63513-107.93214,95.01949a316.25563,316.25563,0,0,1-47.61769,3.90287c-34.97241.56533-69.9607.17549-104.94239.17549h-11.88868V395.23792h-73.54835C1769.34312,387.69282,1768.93639-132.15875,1771.12389-143.83619Zm74.30323,253.25229c3.39966.2332,5.99658.56387,8.59375.56643,34.65528.03428,69.31178.18293,103.9651-.08424a178.95871,178.95871,0,0,0,27.77784-2.3345c37.73267-6.25414,59.86622-32.479,59.98512-70.51511.05005-15.98473.11987-31.97074-.02735-47.95427-.13818-15.00136-4.05591-28.99573-13.08887-41.09113-14.94263-20.00883-36.31006-27.85165-60.12647-28.31142-39.97193-.77168-79.96925-.22066-119.95607-.18138-2.22608.0022-4.45166.41174-7.123.6757Z" transform="translate(1220.04686 327.74302)"/><path d="M2247.53021,57.393V-.86914c7.67529-2.02759,194.86331-2.74684,211.179-.74874.06568,13.62424.15918,27.46993.19214,41.31577.03345,13.98633.00684,27.97277.00684,41.95918V292.45215c0,13.93667.00024,27.87328.00024,43.14085,11.54786.52739,22.419.20349,33.26612.2626,10.6626.05813,21.32569.01275,31.98853.01275h32.98829c10.59424,0,21.18872-.00006,32.43189-.00006v58.20738c-7.71338,2.30693-330.7625,2.73373-341.9046.42216v-58.304h137.44021c2.394-8.02649,3.29834-258.242,1.16748-278.21127-11.26123-1.30687-22.81665-.39258-34.30738-.55346-11.6604-.16332-23.32446-.03608-34.98706-.03608h-33.98756C2271.42254,57.393,2259.841,57.393,2247.53021,57.393Z" transform="translate(1220.04686 327.74302)"/><path d="M2371.09346-133.34217c-.12793-9.28786-.70484-18.62839,3.78808-27.28654,7.49683-14.44779,20.07349-20.69588,35.65113-21.67748,7.28882-.4593,14.63013-.23065,21.94434-.11379,23.02833.36787,40.11036,10.96676,43.22486,37.49452a92.89557,92.89557,0,0,1-.09692,23.81118c-3.22388,22.3827-14.12793,33.48493-37.1316,36.00944a134.38055,134.38055,0,0,1-36.5669-1.32743c-20.15528-3.40129-30.69873-17.41652-30.81055-37.93581C2371.07979-127.35937,2371.09346-130.35082,2371.09346-133.34217Z" transform="translate(1220.04686 327.74302)"/><path d="M-322.8854,19.64615c11.29816,21.668,22.23053,42.63427,33.376,64.00963-15.03558,4.70664-30.40656,8.691-45.12281,14.36988-13.3175,5.13911-26.5379,10.3885-40.20948,14.57543-13.91034,4.26014-27.60956,9.21552-41.36768,13.96345-12.57721,4.34053-25.08368,8.88644-37.66883,13.20366-13.7644,4.72171-27.62512,9.165-41.36731,13.94894-15.3,5.32631-30.455,11.07155-45.78193,16.317-15.0127,5.13783-30.16761,9.85978-45.24909,14.79808-6.44556,2.11064-12.80677,4.49748-19.30781,6.41536-7.88171,2.32529-7.86767,2.1315-12.1698-4.9666-10.57751-17.452-21.21613-34.867-32.60077-53.5623,3.94714-1.87348,7.144-3.80967,10.60242-4.96167,17.2179-5.73529,34.52234-11.21,51.76117-16.88334,13.1963-4.343,26.38972-8.70417,39.4947-13.31217,16.20471-5.69791,32.24579-11.86556,48.48963-17.44626,14.723-5.05817,29.69514-9.39138,44.42262-14.43719,11.61078-3.978,22.94629-8.754,34.53259-12.80876,12.21955-4.27639,24.63361-7.99435,36.88679-12.1783,18.05878-6.16633,36.04786-12.53659,54.0741-18.79857C-327.94613,21.14736-325.75485,20.53635-322.8854,19.64615Z" transform="translate(1220.04686 327.74302)"/></svg>